<mxfile host="app.diagrams.net" modified="2023-11-03T08:22:27.919Z" agent="Mozilla/5.0 (Windows NT 10.0; Win64; x64) AppleWebKit/537.36 (KHTML, like Gecko) Chrome/118.0.0.0 Safari/537.36 Edg/118.0.2088.76" etag="zsF3n9TFfUKArvieyaz0" version="22.0.8" type="github">
  <diagram name="第 1 页" id="uivujS4UycZJmxzg37Q-">
    <mxGraphModel dx="1120" dy="793" grid="1" gridSize="10" guides="1" tooltips="1" connect="1" arrows="1" fold="1" page="1" pageScale="1" pageWidth="1169" pageHeight="827" math="0" shadow="0">
      <root>
        <mxCell id="0" />
        <mxCell id="1" parent="0" />
        <mxCell id="BPuIeQf0IANX3QT64MqC-9" value="" style="rounded=0;whiteSpace=wrap;html=1;" parent="1" vertex="1">
          <mxGeometry x="230" y="100" width="210" height="400" as="geometry" />
        </mxCell>
        <mxCell id="BPuIeQf0IANX3QT64MqC-3" style="edgeStyle=orthogonalEdgeStyle;rounded=0;orthogonalLoop=1;jettySize=auto;html=1;entryX=0.5;entryY=0;entryDx=0;entryDy=0;" parent="1" source="BPuIeQf0IANX3QT64MqC-1" target="BPuIeQf0IANX3QT64MqC-2" edge="1">
          <mxGeometry relative="1" as="geometry" />
        </mxCell>
        <mxCell id="BPuIeQf0IANX3QT64MqC-1" value="" style="shape=actor;whiteSpace=wrap;html=1;fillColor=#fff2cc;strokeColor=#d6b656;" parent="1" vertex="1">
          <mxGeometry x="320" y="140" width="40" height="60" as="geometry" />
        </mxCell>
        <mxCell id="BPuIeQf0IANX3QT64MqC-4" style="edgeStyle=orthogonalEdgeStyle;rounded=0;orthogonalLoop=1;jettySize=auto;html=1;entryX=0.5;entryY=0;entryDx=0;entryDy=0;" parent="1" source="BPuIeQf0IANX3QT64MqC-2" target="BPuIeQf0IANX3QT64MqC-5" edge="1">
          <mxGeometry relative="1" as="geometry">
            <mxPoint x="340" y="340" as="targetPoint" />
          </mxGeometry>
        </mxCell>
        <mxCell id="BPuIeQf0IANX3QT64MqC-2" value="用户在造价成果上传了QDG3、QDG4文件" style="rounded=1;whiteSpace=wrap;html=1;fillColor=#d5e8d4;strokeColor=#82b366;" parent="1" vertex="1">
          <mxGeometry x="280" y="240" width="120" height="60" as="geometry" />
        </mxCell>
        <mxCell id="BPuIeQf0IANX3QT64MqC-7" style="edgeStyle=orthogonalEdgeStyle;rounded=0;orthogonalLoop=1;jettySize=auto;html=1;" parent="1" source="BPuIeQf0IANX3QT64MqC-5" target="BPuIeQf0IANX3QT64MqC-6" edge="1">
          <mxGeometry relative="1" as="geometry" />
        </mxCell>
        <mxCell id="BPuIeQf0IANX3QT64MqC-5" value="将这两条文件记录插入到t_record_analy_file表" style="rounded=1;whiteSpace=wrap;html=1;fillColor=#d5e8d4;strokeColor=#82b366;" parent="1" vertex="1">
          <mxGeometry x="280" y="330" width="120" height="60" as="geometry" />
        </mxCell>
        <mxCell id="BPuIeQf0IANX3QT64MqC-6" value="发送一条MQ记录" style="rounded=1;whiteSpace=wrap;html=1;fillColor=#dae8fc;strokeColor=#6c8ebf;" parent="1" vertex="1">
          <mxGeometry x="280" y="420" width="120" height="60" as="geometry" />
        </mxCell>
        <mxCell id="BPuIeQf0IANX3QT64MqC-8" value="" style="rounded=0;whiteSpace=wrap;html=1;" parent="1" vertex="1">
          <mxGeometry x="470" y="100" width="330" height="400" as="geometry" />
        </mxCell>
        <mxCell id="BPuIeQf0IANX3QT64MqC-10" value="quota-project服务" style="text;html=1;strokeColor=none;fillColor=none;align=center;verticalAlign=middle;whiteSpace=wrap;rounded=0;" parent="1" vertex="1">
          <mxGeometry x="240" y="110" width="110" height="20" as="geometry" />
        </mxCell>
        <mxCell id="BPuIeQf0IANX3QT64MqC-11" value="新增服务" style="text;html=1;strokeColor=none;fillColor=none;align=center;verticalAlign=middle;whiteSpace=wrap;rounded=0;" parent="1" vertex="1">
          <mxGeometry x="480" y="110" width="110" height="20" as="geometry" />
        </mxCell>
        <mxCell id="BPuIeQf0IANX3QT64MqC-15" style="edgeStyle=orthogonalEdgeStyle;rounded=0;orthogonalLoop=1;jettySize=auto;html=1;" parent="1" source="BPuIeQf0IANX3QT64MqC-12" target="BPuIeQf0IANX3QT64MqC-14" edge="1">
          <mxGeometry relative="1" as="geometry" />
        </mxCell>
        <mxCell id="BPuIeQf0IANX3QT64MqC-12" value="消费MQ信息" style="rounded=1;whiteSpace=wrap;html=1;fillColor=#dae8fc;strokeColor=#6c8ebf;" parent="1" vertex="1">
          <mxGeometry x="500" y="195" width="120" height="60" as="geometry" />
        </mxCell>
        <mxCell id="BPuIeQf0IANX3QT64MqC-14" value="将对应文件下载到指定目录下，并设置文件名为对应id" style="rounded=1;whiteSpace=wrap;html=1;fillColor=#dae8fc;strokeColor=#6c8ebf;" parent="1" vertex="1">
          <mxGeometry x="500" y="285" width="120" height="60" as="geometry" />
        </mxCell>
        <mxCell id="BPuIeQf0IANX3QT64MqC-19" style="edgeStyle=orthogonalEdgeStyle;rounded=0;orthogonalLoop=1;jettySize=auto;html=1;entryX=0.5;entryY=0;entryDx=0;entryDy=0;" parent="1" source="BPuIeQf0IANX3QT64MqC-16" target="BPuIeQf0IANX3QT64MqC-18" edge="1">
          <mxGeometry relative="1" as="geometry" />
        </mxCell>
        <mxCell id="BPuIeQf0IANX3QT64MqC-16" value="监听指定目录文件变态" style="rounded=1;whiteSpace=wrap;html=1;fillColor=#dae8fc;strokeColor=#6c8ebf;" parent="1" vertex="1">
          <mxGeometry x="645" y="160" width="120" height="60" as="geometry" />
        </mxCell>
        <mxCell id="BPuIeQf0IANX3QT64MqC-21" style="edgeStyle=orthogonalEdgeStyle;rounded=0;orthogonalLoop=1;jettySize=auto;html=1;entryX=0.5;entryY=0;entryDx=0;entryDy=0;" parent="1" source="BPuIeQf0IANX3QT64MqC-18" target="BPuIeQf0IANX3QT64MqC-20" edge="1">
          <mxGeometry relative="1" as="geometry" />
        </mxCell>
        <mxCell id="BPuIeQf0IANX3QT64MqC-18" value="监听到有新增的xml，且大小不为0kb" style="rounded=1;whiteSpace=wrap;html=1;fillColor=#dae8fc;strokeColor=#6c8ebf;" parent="1" vertex="1">
          <mxGeometry x="645" y="250" width="120" height="60" as="geometry" />
        </mxCell>
        <mxCell id="BPuIeQf0IANX3QT64MqC-20" value="上传xml并回调解析xml方法以及与对应文件建立联系" style="rounded=1;whiteSpace=wrap;html=1;fillColor=#d5e8d4;strokeColor=#82b366;" parent="1" vertex="1">
          <mxGeometry x="645" y="345" width="120" height="60" as="geometry" />
        </mxCell>
        <mxCell id="BPuIeQf0IANX3QT64MqC-24" value="" style="rounded=0;whiteSpace=wrap;html=1;fillColor=#d5e8d4;strokeColor=#82b366;" parent="1" vertex="1">
          <mxGeometry x="775" y="49" width="10" height="10" as="geometry" />
        </mxCell>
        <mxCell id="BPuIeQf0IANX3QT64MqC-25" value="" style="rounded=0;whiteSpace=wrap;html=1;fillColor=#dae8fc;strokeColor=#6c8ebf;" parent="1" vertex="1">
          <mxGeometry x="775" y="69" width="10" height="10" as="geometry" />
        </mxCell>
        <mxCell id="BPuIeQf0IANX3QT64MqC-26" value="已实现逻辑" style="text;html=1;strokeColor=none;fillColor=none;align=center;verticalAlign=middle;whiteSpace=wrap;rounded=0;" parent="1" vertex="1">
          <mxGeometry x="790" y="40" width="90" height="30" as="geometry" />
        </mxCell>
        <mxCell id="BPuIeQf0IANX3QT64MqC-27" value="新增逻辑" style="text;html=1;strokeColor=none;fillColor=none;align=center;verticalAlign=middle;whiteSpace=wrap;rounded=0;" parent="1" vertex="1">
          <mxGeometry x="790" y="59" width="90" height="30" as="geometry" />
        </mxCell>
      </root>
    </mxGraphModel>
  </diagram>
</mxfile>
